<mxfile host="Electron" agent="Mozilla/5.0 (Windows NT 10.0; Win64; x64) AppleWebKit/537.36 (KHTML, like Gecko) draw.io/25.0.1 Chrome/128.0.6613.186 Electron/32.2.6 Safari/537.36" version="25.0.1">
  <diagram name="Seite-1" id="W1DhoFPGibtK0MwZKT-t">
    <mxGraphModel dx="456" dy="371" grid="1" gridSize="10" guides="1" tooltips="1" connect="1" arrows="1" fold="1" page="1" pageScale="1" pageWidth="827" pageHeight="1169" math="0" shadow="0">
      <root>
        <mxCell id="0" />
        <mxCell id="1" parent="0" />
        <mxCell id="ZF9vTq5lnU73LVUkt1fU-1" value="" style="edgeStyle=orthogonalEdgeStyle;rounded=0;orthogonalLoop=1;jettySize=auto;html=1;" parent="1" source="ZF9vTq5lnU73LVUkt1fU-2" target="ZF9vTq5lnU73LVUkt1fU-4" edge="1">
          <mxGeometry relative="1" as="geometry" />
        </mxCell>
        <mxCell id="ZF9vTq5lnU73LVUkt1fU-2" value="" style="ellipse;fillColor=strokeColor;html=1;" parent="1" vertex="1">
          <mxGeometry x="398" y="40" width="30" height="30" as="geometry" />
        </mxCell>
        <mxCell id="ZF9vTq5lnU73LVUkt1fU-3" value="" style="edgeStyle=orthogonalEdgeStyle;rounded=0;orthogonalLoop=1;jettySize=auto;html=1;" parent="1" source="ZF9vTq5lnU73LVUkt1fU-4" target="ZF9vTq5lnU73LVUkt1fU-6" edge="1">
          <mxGeometry relative="1" as="geometry" />
        </mxCell>
        <mxCell id="ZF9vTq5lnU73LVUkt1fU-4" value="fahrzeit = 0" style="html=1;align=center;verticalAlign=middle;rounded=1;absoluteArcSize=1;arcSize=10;dashed=0;whiteSpace=wrap;" parent="1" vertex="1">
          <mxGeometry x="343" y="90" width="140" height="40" as="geometry" />
        </mxCell>
        <mxCell id="ZF9vTq5lnU73LVUkt1fU-5" value="" style="edgeStyle=orthogonalEdgeStyle;rounded=0;orthogonalLoop=1;jettySize=auto;html=1;" parent="1" source="ZF9vTq5lnU73LVUkt1fU-6" target="ZF9vTq5lnU73LVUkt1fU-9" edge="1">
          <mxGeometry relative="1" as="geometry" />
        </mxCell>
        <mxCell id="ZF9vTq5lnU73LVUkt1fU-6" value="fahrzeit = fahrzeit + 8" style="html=1;align=center;verticalAlign=middle;rounded=1;absoluteArcSize=1;arcSize=10;dashed=0;whiteSpace=wrap;" parent="1" vertex="1">
          <mxGeometry x="343" y="160" width="140" height="40" as="geometry" />
        </mxCell>
        <mxCell id="ZF9vTq5lnU73LVUkt1fU-7" value="" style="edgeStyle=orthogonalEdgeStyle;rounded=0;orthogonalLoop=1;jettySize=auto;html=1;" parent="1" source="ZF9vTq5lnU73LVUkt1fU-9" target="ZF9vTq5lnU73LVUkt1fU-11" edge="1">
          <mxGeometry relative="1" as="geometry" />
        </mxCell>
        <mxCell id="ZF9vTq5lnU73LVUkt1fU-8" value="" style="edgeStyle=orthogonalEdgeStyle;rounded=0;orthogonalLoop=1;jettySize=auto;html=1;" parent="1" source="ZF9vTq5lnU73LVUkt1fU-9" target="ZF9vTq5lnU73LVUkt1fU-15" edge="1">
          <mxGeometry relative="1" as="geometry">
            <Array as="points">
              <mxPoint x="320" y="235" />
              <mxPoint x="320" y="285" />
            </Array>
          </mxGeometry>
        </mxCell>
        <mxCell id="ZF9vTq5lnU73LVUkt1fU-9" value="" style="rhombus;" parent="1" vertex="1">
          <mxGeometry x="398" y="220" width="30" height="30" as="geometry" />
        </mxCell>
        <mxCell id="ZF9vTq5lnU73LVUkt1fU-10" value="" style="edgeStyle=orthogonalEdgeStyle;rounded=0;orthogonalLoop=1;jettySize=auto;html=1;" parent="1" source="ZF9vTq5lnU73LVUkt1fU-11" target="ZF9vTq5lnU73LVUkt1fU-15" edge="1">
          <mxGeometry relative="1" as="geometry">
            <Array as="points">
              <mxPoint x="718" y="285" />
            </Array>
          </mxGeometry>
        </mxCell>
        <mxCell id="ZF9vTq5lnU73LVUkt1fU-11" value="fahrzeit = fahrzeit +2" style="html=1;align=center;verticalAlign=middle;rounded=1;absoluteArcSize=1;arcSize=10;dashed=0;whiteSpace=wrap;" parent="1" vertex="1">
          <mxGeometry x="648" y="215" width="140" height="40" as="geometry" />
        </mxCell>
        <mxCell id="ZF9vTq5lnU73LVUkt1fU-12" value="" style="edgeStyle=orthogonalEdgeStyle;rounded=0;orthogonalLoop=1;jettySize=auto;html=1;" parent="1" source="ZF9vTq5lnU73LVUkt1fU-13" target="ZF9vTq5lnU73LVUkt1fU-29" edge="1">
          <mxGeometry relative="1" as="geometry" />
        </mxCell>
        <mxCell id="ZF9vTq5lnU73LVUkt1fU-13" value="fahrzeit = fahrzeit + 96" style="html=1;align=center;verticalAlign=middle;rounded=1;absoluteArcSize=1;arcSize=10;dashed=0;whiteSpace=wrap;" parent="1" vertex="1">
          <mxGeometry x="678" y="315" width="140" height="40" as="geometry" />
        </mxCell>
        <mxCell id="-klw3Fr9hfoMGLDWc1L9-2" style="edgeStyle=orthogonalEdgeStyle;rounded=0;orthogonalLoop=1;jettySize=auto;html=1;exitX=0.5;exitY=1;exitDx=0;exitDy=0;entryX=0.5;entryY=0;entryDx=0;entryDy=0;" edge="1" parent="1" source="ZF9vTq5lnU73LVUkt1fU-15" target="-klw3Fr9hfoMGLDWc1L9-1">
          <mxGeometry relative="1" as="geometry" />
        </mxCell>
        <mxCell id="ZF9vTq5lnU73LVUkt1fU-15" value="" style="rhombus;" parent="1" vertex="1">
          <mxGeometry x="398" y="270" width="30" height="30" as="geometry" />
        </mxCell>
        <mxCell id="ZF9vTq5lnU73LVUkt1fU-16" value="[Halt in Spandau]" style="text;html=1;align=center;verticalAlign=middle;whiteSpace=wrap;rounded=0;" parent="1" vertex="1">
          <mxGeometry x="428" y="210" width="130" height="30" as="geometry" />
        </mxCell>
        <mxCell id="ZF9vTq5lnU73LVUkt1fU-17" value="[Kein Halt in Spandau]" style="text;html=1;align=center;verticalAlign=middle;whiteSpace=wrap;rounded=0;" parent="1" vertex="1">
          <mxGeometry x="248" y="210" width="150" height="30" as="geometry" />
        </mxCell>
        <mxCell id="-klw3Fr9hfoMGLDWc1L9-7" value="" style="edgeStyle=orthogonalEdgeStyle;rounded=0;orthogonalLoop=1;jettySize=auto;html=1;" edge="1" parent="1" source="ZF9vTq5lnU73LVUkt1fU-22" target="-klw3Fr9hfoMGLDWc1L9-6">
          <mxGeometry relative="1" as="geometry" />
        </mxCell>
        <mxCell id="ZF9vTq5lnU73LVUkt1fU-22" value="fahrzeit = fahrzeit + 34" style="html=1;align=center;verticalAlign=middle;rounded=1;absoluteArcSize=1;arcSize=10;dashed=0;whiteSpace=wrap;" parent="1" vertex="1">
          <mxGeometry x="98" y="315" width="140" height="40" as="geometry" />
        </mxCell>
        <mxCell id="ZF9vTq5lnU73LVUkt1fU-28" value="" style="edgeStyle=orthogonalEdgeStyle;rounded=0;orthogonalLoop=1;jettySize=auto;html=1;entryX=1;entryY=0.5;entryDx=0;entryDy=0;" parent="1" source="ZF9vTq5lnU73LVUkt1fU-29" target="ZF9vTq5lnU73LVUkt1fU-62" edge="1">
          <mxGeometry relative="1" as="geometry">
            <mxPoint x="748" y="935" as="targetPoint" />
            <Array as="points">
              <mxPoint x="748" y="950" />
            </Array>
          </mxGeometry>
        </mxCell>
        <mxCell id="ZF9vTq5lnU73LVUkt1fU-29" value="Ausgabe der Fahrzeit nach Hamburg in Minuten" style="html=1;align=center;verticalAlign=middle;rounded=1;absoluteArcSize=1;arcSize=10;dashed=0;whiteSpace=wrap;" parent="1" vertex="1">
          <mxGeometry x="678" y="865" width="140" height="40" as="geometry" />
        </mxCell>
        <mxCell id="ZF9vTq5lnU73LVUkt1fU-42" value="" style="edgeStyle=orthogonalEdgeStyle;rounded=0;orthogonalLoop=1;jettySize=auto;html=1;" parent="1" source="ZF9vTq5lnU73LVUkt1fU-43" target="ZF9vTq5lnU73LVUkt1fU-62" edge="1">
          <mxGeometry relative="1" as="geometry" />
        </mxCell>
        <mxCell id="ZF9vTq5lnU73LVUkt1fU-43" value="Ausgabe der Fahrzeit nach Wolfsburg in Minuten" style="html=1;align=center;verticalAlign=middle;rounded=1;absoluteArcSize=1;arcSize=10;dashed=0;whiteSpace=wrap;" parent="1" vertex="1">
          <mxGeometry x="528" y="865" width="140" height="40" as="geometry" />
        </mxCell>
        <mxCell id="ZF9vTq5lnU73LVUkt1fU-48" value="" style="edgeStyle=orthogonalEdgeStyle;rounded=0;orthogonalLoop=1;jettySize=auto;html=1;" parent="1" source="ZF9vTq5lnU73LVUkt1fU-49" target="ZF9vTq5lnU73LVUkt1fU-58" edge="1">
          <mxGeometry relative="1" as="geometry" />
        </mxCell>
        <mxCell id="ZF9vTq5lnU73LVUkt1fU-49" value="Ausgabe der Fahrzeit nach Braunschweig in Minuten" style="html=1;align=center;verticalAlign=middle;rounded=1;absoluteArcSize=1;arcSize=10;dashed=0;whiteSpace=wrap;" parent="1" vertex="1">
          <mxGeometry x="308" y="865" width="140" height="40" as="geometry" />
        </mxCell>
        <mxCell id="ZF9vTq5lnU73LVUkt1fU-50" value="" style="edgeStyle=orthogonalEdgeStyle;rounded=0;orthogonalLoop=1;jettySize=auto;html=1;" parent="1" source="ZF9vTq5lnU73LVUkt1fU-51" target="ZF9vTq5lnU73LVUkt1fU-58" edge="1">
          <mxGeometry relative="1" as="geometry">
            <Array as="points">
              <mxPoint x="128" y="950" />
            </Array>
          </mxGeometry>
        </mxCell>
        <mxCell id="ZF9vTq5lnU73LVUkt1fU-51" value="Ausgabe der Fahrzeit nach Hannover in Minuten" style="html=1;align=center;verticalAlign=middle;rounded=1;absoluteArcSize=1;arcSize=10;dashed=0;whiteSpace=wrap;" parent="1" vertex="1">
          <mxGeometry x="58" y="865" width="140" height="40" as="geometry" />
        </mxCell>
        <mxCell id="ZF9vTq5lnU73LVUkt1fU-57" value="" style="edgeStyle=orthogonalEdgeStyle;rounded=0;orthogonalLoop=1;jettySize=auto;html=1;" parent="1" source="ZF9vTq5lnU73LVUkt1fU-58" target="ZF9vTq5lnU73LVUkt1fU-63" edge="1">
          <mxGeometry relative="1" as="geometry" />
        </mxCell>
        <mxCell id="ZF9vTq5lnU73LVUkt1fU-58" value="" style="rhombus;" parent="1" vertex="1">
          <mxGeometry x="363" y="935" width="30" height="30" as="geometry" />
        </mxCell>
        <mxCell id="ZF9vTq5lnU73LVUkt1fU-61" value="" style="edgeStyle=orthogonalEdgeStyle;rounded=0;orthogonalLoop=1;jettySize=auto;html=1;" parent="1" source="ZF9vTq5lnU73LVUkt1fU-62" target="ZF9vTq5lnU73LVUkt1fU-58" edge="1">
          <mxGeometry relative="1" as="geometry" />
        </mxCell>
        <mxCell id="ZF9vTq5lnU73LVUkt1fU-62" value="" style="rhombus;" parent="1" vertex="1">
          <mxGeometry x="583" y="935" width="30" height="30" as="geometry" />
        </mxCell>
        <mxCell id="ZF9vTq5lnU73LVUkt1fU-63" value="" style="ellipse;html=1;shape=endState;fillColor=strokeColor;" parent="1" vertex="1">
          <mxGeometry x="363" y="995" width="30" height="30" as="geometry" />
        </mxCell>
        <mxCell id="-klw3Fr9hfoMGLDWc1L9-3" style="edgeStyle=orthogonalEdgeStyle;rounded=0;orthogonalLoop=1;jettySize=auto;html=1;exitX=0;exitY=0.5;exitDx=0;exitDy=0;entryX=1;entryY=0.5;entryDx=0;entryDy=0;" edge="1" parent="1" source="-klw3Fr9hfoMGLDWc1L9-1" target="ZF9vTq5lnU73LVUkt1fU-22">
          <mxGeometry relative="1" as="geometry" />
        </mxCell>
        <mxCell id="-klw3Fr9hfoMGLDWc1L9-8" value="[Zug fährt Richtung Stendal]" style="edgeLabel;html=1;align=center;verticalAlign=middle;resizable=0;points=[];" vertex="1" connectable="0" parent="-klw3Fr9hfoMGLDWc1L9-3">
          <mxGeometry x="-0.0147" relative="1" as="geometry">
            <mxPoint x="1" y="-9" as="offset" />
          </mxGeometry>
        </mxCell>
        <mxCell id="-klw3Fr9hfoMGLDWc1L9-4" style="edgeStyle=orthogonalEdgeStyle;rounded=0;orthogonalLoop=1;jettySize=auto;html=1;exitX=1;exitY=0.5;exitDx=0;exitDy=0;entryX=0;entryY=0.5;entryDx=0;entryDy=0;" edge="1" parent="1" source="-klw3Fr9hfoMGLDWc1L9-1" target="ZF9vTq5lnU73LVUkt1fU-13">
          <mxGeometry relative="1" as="geometry" />
        </mxCell>
        <mxCell id="-klw3Fr9hfoMGLDWc1L9-5" value="[Zug führt Richtung Hamburg]" style="edgeLabel;html=1;align=center;verticalAlign=middle;resizable=0;points=[];" vertex="1" connectable="0" parent="-klw3Fr9hfoMGLDWc1L9-4">
          <mxGeometry x="-0.2312" y="2" relative="1" as="geometry">
            <mxPoint x="19" y="-7" as="offset" />
          </mxGeometry>
        </mxCell>
        <mxCell id="-klw3Fr9hfoMGLDWc1L9-1" value="" style="rhombus;" vertex="1" parent="1">
          <mxGeometry x="398" y="320" width="30" height="30" as="geometry" />
        </mxCell>
        <mxCell id="-klw3Fr9hfoMGLDWc1L9-10" value="" style="edgeStyle=orthogonalEdgeStyle;rounded=0;orthogonalLoop=1;jettySize=auto;html=1;" edge="1" parent="1" source="-klw3Fr9hfoMGLDWc1L9-6" target="-klw3Fr9hfoMGLDWc1L9-9">
          <mxGeometry relative="1" as="geometry" />
        </mxCell>
        <mxCell id="-klw3Fr9hfoMGLDWc1L9-11" value="[Zug hält in Stendal]" style="edgeLabel;html=1;align=center;verticalAlign=middle;resizable=0;points=[];" vertex="1" connectable="0" parent="-klw3Fr9hfoMGLDWc1L9-10">
          <mxGeometry x="-0.2016" y="-1" relative="1" as="geometry">
            <mxPoint as="offset" />
          </mxGeometry>
        </mxCell>
        <mxCell id="-klw3Fr9hfoMGLDWc1L9-13" value="" style="edgeStyle=orthogonalEdgeStyle;rounded=0;orthogonalLoop=1;jettySize=auto;html=1;" edge="1" parent="1" source="-klw3Fr9hfoMGLDWc1L9-6" target="-klw3Fr9hfoMGLDWc1L9-12">
          <mxGeometry relative="1" as="geometry" />
        </mxCell>
        <mxCell id="-klw3Fr9hfoMGLDWc1L9-14" value="[Zug umfährt Stendal]" style="edgeLabel;html=1;align=center;verticalAlign=middle;resizable=0;points=[];" vertex="1" connectable="0" parent="-klw3Fr9hfoMGLDWc1L9-13">
          <mxGeometry x="-0.0506" y="1" relative="1" as="geometry">
            <mxPoint x="1" y="-8" as="offset" />
          </mxGeometry>
        </mxCell>
        <mxCell id="-klw3Fr9hfoMGLDWc1L9-6" value="" style="rhombus;" vertex="1" parent="1">
          <mxGeometry x="153" y="380" width="30" height="30" as="geometry" />
        </mxCell>
        <mxCell id="-klw3Fr9hfoMGLDWc1L9-17" style="edgeStyle=orthogonalEdgeStyle;rounded=0;orthogonalLoop=1;jettySize=auto;html=1;exitX=1;exitY=0.5;exitDx=0;exitDy=0;entryX=0;entryY=0.5;entryDx=0;entryDy=0;" edge="1" parent="1" source="-klw3Fr9hfoMGLDWc1L9-9" target="-klw3Fr9hfoMGLDWc1L9-15">
          <mxGeometry relative="1" as="geometry" />
        </mxCell>
        <mxCell id="-klw3Fr9hfoMGLDWc1L9-9" value="fahrzeit += 16" style="html=1;align=center;verticalAlign=middle;rounded=1;absoluteArcSize=1;arcSize=10;dashed=0;whiteSpace=wrap;" vertex="1" parent="1">
          <mxGeometry x="98" y="470" width="140" height="40" as="geometry" />
        </mxCell>
        <mxCell id="-klw3Fr9hfoMGLDWc1L9-16" value="" style="edgeStyle=orthogonalEdgeStyle;rounded=0;orthogonalLoop=1;jettySize=auto;html=1;" edge="1" parent="1" source="-klw3Fr9hfoMGLDWc1L9-12" target="-klw3Fr9hfoMGLDWc1L9-15">
          <mxGeometry relative="1" as="geometry" />
        </mxCell>
        <mxCell id="-klw3Fr9hfoMGLDWc1L9-12" value="fahrzeit += 6" style="html=1;align=center;verticalAlign=middle;rounded=1;absoluteArcSize=1;arcSize=10;dashed=0;whiteSpace=wrap;" vertex="1" parent="1">
          <mxGeometry x="344" y="375" width="140" height="40" as="geometry" />
        </mxCell>
        <mxCell id="-klw3Fr9hfoMGLDWc1L9-21" value="" style="edgeStyle=orthogonalEdgeStyle;rounded=0;orthogonalLoop=1;jettySize=auto;html=1;" edge="1" parent="1" source="-klw3Fr9hfoMGLDWc1L9-15" target="-klw3Fr9hfoMGLDWc1L9-20">
          <mxGeometry relative="1" as="geometry">
            <Array as="points">
              <mxPoint x="414" y="540" />
              <mxPoint x="414" y="540" />
            </Array>
          </mxGeometry>
        </mxCell>
        <mxCell id="-klw3Fr9hfoMGLDWc1L9-15" value="" style="rhombus;" vertex="1" parent="1">
          <mxGeometry x="399" y="475" width="30" height="30" as="geometry" />
        </mxCell>
        <mxCell id="-klw3Fr9hfoMGLDWc1L9-25" style="edgeStyle=orthogonalEdgeStyle;rounded=0;orthogonalLoop=1;jettySize=auto;html=1;entryX=0.5;entryY=0;entryDx=0;entryDy=0;exitX=1;exitY=0.5;exitDx=0;exitDy=0;" edge="1" parent="1" source="-klw3Fr9hfoMGLDWc1L9-35" target="-klw3Fr9hfoMGLDWc1L9-23">
          <mxGeometry relative="1" as="geometry">
            <mxPoint x="380" y="660" as="sourcePoint" />
            <Array as="points">
              <mxPoint x="378" y="635" />
            </Array>
          </mxGeometry>
        </mxCell>
        <mxCell id="-klw3Fr9hfoMGLDWc1L9-32" value="[Zug endet in Braunschweig]" style="edgeLabel;html=1;align=center;verticalAlign=middle;resizable=0;points=[];" vertex="1" connectable="0" parent="-klw3Fr9hfoMGLDWc1L9-25">
          <mxGeometry x="-0.6825" y="1" relative="1" as="geometry">
            <mxPoint x="40" y="-8" as="offset" />
          </mxGeometry>
        </mxCell>
        <mxCell id="-klw3Fr9hfoMGLDWc1L9-26" style="edgeStyle=orthogonalEdgeStyle;rounded=0;orthogonalLoop=1;jettySize=auto;html=1;exitX=1;exitY=0.5;exitDx=0;exitDy=0;entryX=0.5;entryY=0;entryDx=0;entryDy=0;" edge="1" parent="1" source="-klw3Fr9hfoMGLDWc1L9-20" target="-klw3Fr9hfoMGLDWc1L9-24">
          <mxGeometry relative="1" as="geometry" />
        </mxCell>
        <mxCell id="-klw3Fr9hfoMGLDWc1L9-31" value="[Zug endet in Wolfsburg]" style="edgeLabel;html=1;align=center;verticalAlign=middle;resizable=0;points=[];" vertex="1" connectable="0" parent="-klw3Fr9hfoMGLDWc1L9-26">
          <mxGeometry x="-0.5428" y="1" relative="1" as="geometry">
            <mxPoint x="30" y="-11" as="offset" />
          </mxGeometry>
        </mxCell>
        <mxCell id="-klw3Fr9hfoMGLDWc1L9-27" style="edgeStyle=orthogonalEdgeStyle;rounded=0;orthogonalLoop=1;jettySize=auto;html=1;entryX=0.5;entryY=0;entryDx=0;entryDy=0;exitX=0;exitY=0.5;exitDx=0;exitDy=0;" edge="1" parent="1" source="-klw3Fr9hfoMGLDWc1L9-35" target="-klw3Fr9hfoMGLDWc1L9-22">
          <mxGeometry relative="1" as="geometry">
            <mxPoint x="128" y="640" as="sourcePoint" />
          </mxGeometry>
        </mxCell>
        <mxCell id="-klw3Fr9hfoMGLDWc1L9-33" value="[Zug endet in Hannover]" style="edgeLabel;html=1;align=center;verticalAlign=middle;resizable=0;points=[];" vertex="1" connectable="0" parent="-klw3Fr9hfoMGLDWc1L9-27">
          <mxGeometry x="-0.449" y="2" relative="1" as="geometry">
            <mxPoint x="-17" y="-12" as="offset" />
          </mxGeometry>
        </mxCell>
        <mxCell id="-klw3Fr9hfoMGLDWc1L9-36" style="edgeStyle=orthogonalEdgeStyle;rounded=0;orthogonalLoop=1;jettySize=auto;html=1;exitX=0;exitY=0.5;exitDx=0;exitDy=0;entryX=1;entryY=0.5;entryDx=0;entryDy=0;" edge="1" parent="1" source="-klw3Fr9hfoMGLDWc1L9-20" target="-klw3Fr9hfoMGLDWc1L9-35">
          <mxGeometry relative="1" as="geometry">
            <Array as="points">
              <mxPoint x="235" y="584" />
              <mxPoint x="235" y="635" />
            </Array>
          </mxGeometry>
        </mxCell>
        <mxCell id="-klw3Fr9hfoMGLDWc1L9-37" value="[Zug endet nicht in Wolfsburg]" style="edgeLabel;html=1;align=center;verticalAlign=middle;resizable=0;points=[];" vertex="1" connectable="0" parent="-klw3Fr9hfoMGLDWc1L9-36">
          <mxGeometry x="0.0032" y="-3" relative="1" as="geometry">
            <mxPoint x="30" y="-9" as="offset" />
          </mxGeometry>
        </mxCell>
        <mxCell id="-klw3Fr9hfoMGLDWc1L9-20" value="" style="rhombus;" vertex="1" parent="1">
          <mxGeometry x="399" y="569" width="30" height="30" as="geometry" />
        </mxCell>
        <mxCell id="-klw3Fr9hfoMGLDWc1L9-28" style="edgeStyle=orthogonalEdgeStyle;rounded=0;orthogonalLoop=1;jettySize=auto;html=1;exitX=0.5;exitY=1;exitDx=0;exitDy=0;entryX=0.5;entryY=0;entryDx=0;entryDy=0;" edge="1" parent="1" source="-klw3Fr9hfoMGLDWc1L9-22" target="ZF9vTq5lnU73LVUkt1fU-51">
          <mxGeometry relative="1" as="geometry" />
        </mxCell>
        <mxCell id="-klw3Fr9hfoMGLDWc1L9-22" value="fahrzeit += 62" style="html=1;align=center;verticalAlign=middle;rounded=1;absoluteArcSize=1;arcSize=10;dashed=0;whiteSpace=wrap;" vertex="1" parent="1">
          <mxGeometry x="58" y="740" width="140" height="40" as="geometry" />
        </mxCell>
        <mxCell id="-klw3Fr9hfoMGLDWc1L9-29" style="edgeStyle=orthogonalEdgeStyle;rounded=0;orthogonalLoop=1;jettySize=auto;html=1;exitX=0.5;exitY=1;exitDx=0;exitDy=0;entryX=0.5;entryY=0;entryDx=0;entryDy=0;" edge="1" parent="1" source="-klw3Fr9hfoMGLDWc1L9-23" target="ZF9vTq5lnU73LVUkt1fU-49">
          <mxGeometry relative="1" as="geometry" />
        </mxCell>
        <mxCell id="-klw3Fr9hfoMGLDWc1L9-23" value="fahrzeit += 50" style="html=1;align=center;verticalAlign=middle;rounded=1;absoluteArcSize=1;arcSize=10;dashed=0;whiteSpace=wrap;" vertex="1" parent="1">
          <mxGeometry x="308" y="740" width="140" height="40" as="geometry" />
        </mxCell>
        <mxCell id="-klw3Fr9hfoMGLDWc1L9-30" style="edgeStyle=orthogonalEdgeStyle;rounded=0;orthogonalLoop=1;jettySize=auto;html=1;exitX=0.5;exitY=1;exitDx=0;exitDy=0;entryX=0.5;entryY=0;entryDx=0;entryDy=0;" edge="1" parent="1" source="-klw3Fr9hfoMGLDWc1L9-24" target="ZF9vTq5lnU73LVUkt1fU-43">
          <mxGeometry relative="1" as="geometry" />
        </mxCell>
        <mxCell id="-klw3Fr9hfoMGLDWc1L9-24" value="fahrzeit += 29" style="html=1;align=center;verticalAlign=middle;rounded=1;absoluteArcSize=1;arcSize=10;dashed=0;whiteSpace=wrap;" vertex="1" parent="1">
          <mxGeometry x="528" y="660" width="140" height="40" as="geometry" />
        </mxCell>
        <mxCell id="-klw3Fr9hfoMGLDWc1L9-35" value="" style="rhombus;" vertex="1" parent="1">
          <mxGeometry x="220" y="620" width="30" height="30" as="geometry" />
        </mxCell>
      </root>
    </mxGraphModel>
  </diagram>
</mxfile>
